<?xml version="1.0" standalone="no"?>
<!DOCTYPE svg PUBLIC "-//W3C//DTD SVG 20010904//EN"
 "http://www.w3.org/TR/2001/REC-SVG-20010904/DTD/svg10.dtd">
<svg version="1.0" xmlns="http://www.w3.org/2000/svg"
 width="1024.000000pt" height="1024.000000pt" viewBox="0 0 1024.000000 1024.000000"
 preserveAspectRatio="xMidYMid meet">

<g transform="translate(0.000000,1024.000000) scale(0.100000,-0.100000)"
fill="#000000" stroke="none">
<path d="M0 5640 l0 -4600 5120 0 5120 0 0 4600 0 4600 -5120 0 -5120 0 0
-4600z m7139 1100 c157 -11 340 -38 518 -76 62 -13 115 -24 118 -24 3 0 5
-142 5 -315 l0 -315 -108 0 c-75 0 -161 9 -287 31 -216 38 -399 43 -530 14
-88 -18 -231 -71 -294 -107 l-41 -23 0 -645 c0 -548 2 -655 15 -705 38 -145
141 -269 279 -334 44 -22 105 -44 134 -50 92 -19 254 -13 397 15 89 18 179 27
283 31 l152 5 -2 -287 -3 -287 -55 -19 c-130 -47 -330 -100 -433 -115 -84 -12
-155 -15 -287 -11 -152 4 -190 8 -291 35 -416 108 -733 423 -841 837 -19 72
-22 118 -27 455 l-6 375 -111 -215 c-62 -118 -201 -393 -309 -610 -236 -473
-259 -512 -337 -595 -118 -126 -248 -206 -402 -245 -74 -19 -111 -20 -552 -20
l-474 0 -2 1143 c-3 1135 -3 1142 -24 1187 -52 112 -130 159 -270 163 l-89 2
-3 -1248 -2 -1247 -340 0 -340 0 0 1581 0 1580 493 -4 c543 -4 534 -3 683 -71
107 -50 176 -98 271 -189 147 -141 239 -306 284 -506 17 -80 19 -138 19 -895
l0 -808 79 3 c69 4 85 8 123 34 41 29 60 63 408 755 201 399 389 761 419 805
174 257 365 452 595 606 286 192 593 292 956 312 30 2 62 4 70 5 8 1 80 -3
159 -8z"/>
<path d="M7709 678 c-32 -73 -32 -173 0 -245 13 -29 30 -53 37 -53 17 0 18 -5
-6 63 -25 72 -25 138 0 219 11 34 20 64 20 66 0 1 -6 2 -14 2 -7 0 -24 -24
-37 -52z"/>
<path d="M8496 721 c-3 -5 1 -25 9 -44 32 -77 28 -181 -11 -281 -14 -37 20
-11 46 35 35 61 35 170 1 247 -23 51 -34 61 -45 43z"/>
<path d="M739 684 c-23 -25 -24 -31 -21 -142 3 -119 9 -139 36 -129 13 5 16
23 16 92 0 69 3 85 15 85 20 0 19 17 -2 28 -21 12 -9 45 14 40 15 -3 18 -16
20 -93 1 -50 2 -102 2 -117 1 -23 7 -28 36 -34 68 -12 101 36 121 179 6 42 4
47 -14 47 -15 0 -22 -11 -32 -47 -27 -107 -35 -128 -50 -128 -12 0 -16 21 -20
108 -4 93 -8 111 -24 123 -30 22 -70 17 -97 -12z"/>
<path d="M1022 698 c-13 -6 -21 -19 -20 -27 3 -12 16 -16 58 -16 48 0 55 -2
55 -20 0 -12 -11 -25 -27 -33 -38 -18 -36 -46 5 -57 35 -11 48 -45 27 -71 -15
-17 -63 -18 -92 -3 -16 8 -24 8 -35 -4 -14 -13 -12 -17 13 -34 42 -27 116 -24
148 6 35 33 35 83 0 118 -25 25 -25 25 -5 40 36 24 25 75 -20 98 -33 17 -74
18 -107 3z"/>
<path d="M1428 703 c-30 -3 -38 -9 -38 -24 0 -16 7 -19 45 -19 25 0 45 -3 45
-7 0 -5 -11 -21 -25 -37 -27 -32 -29 -61 -5 -62 43 -1 60 -16 60 -49 0 -21 -6
-35 -16 -39 -25 -10 -63 -7 -84 7 -17 10 -22 9 -30 -3 -15 -23 -13 -26 26 -45
73 -35 154 7 154 79 0 37 -33 86 -58 86 -11 0 -7 9 16 33 42 43 42 72 1 81
-17 3 -37 5 -43 4 -6 -1 -28 -3 -48 -5z"/>
<path d="M1630 618 c0 -51 -3 -116 -6 -144 -6 -46 -4 -52 15 -57 26 -7 30 0
38 63 l6 50 63 0 c57 0 64 2 64 20 0 14 -7 20 -22 22 -13 0 -27 2 -33 3 -5 2
-25 3 -43 4 -32 1 -33 2 -30 39 l3 37 66 3 c56 2 68 6 72 22 7 25 -10 30 -109
30 l-84 0 0 -92z"/>
<path d="M1856 694 c-11 -29 -6 -34 39 -34 l45 0 0 -120 0 -120 25 0 24 0 3
118 3 117 43 3 c37 3 42 6 42 28 0 24 0 24 -109 24 -90 0 -110 -3 -115 -16z"/>
<path d="M2133 703 c-23 -9 -14 -23 14 -23 25 0 25 -1 10 -18 -22 -24 -21 -30
5 -34 26 -3 37 -36 16 -49 -7 -5 -25 -6 -40 -3 -35 7 -38 -13 -4 -22 42 -10
70 -1 80 28 8 22 6 32 -8 47 -14 16 -15 23 -6 41 6 12 10 23 8 25 -7 7 -64 13
-75 8z"/>
<path d="M7085 696 c-22 -6 -39 -15 -37 -19 1 -4 2 -11 2 -17 0 -5 14 -10 30
-10 l30 0 0 -115 c0 -108 1 -115 20 -115 19 0 20 7 20 145 0 159 3 152 -65
131z"/>
<path d="M7826 688 c-3 -13 -6 -70 -6 -128 0 -121 6 -150 29 -150 14 0 16 18
16 150 0 132 -2 150 -16 150 -9 0 -19 -10 -23 -22z"/>
<path d="M8065 696 c-99 -43 -138 -187 -70 -255 36 -36 112 -37 149 -2 34 32
42 80 21 120 -19 39 -56 54 -107 46 -54 -9 -49 9 12 43 30 16 50 34 50 45 0
20 -14 21 -55 3z m49 -148 c44 -63 -19 -126 -82 -82 -26 18 -30 65 -6 88 23
24 70 20 88 -6z"/>
<path d="M8980 695 c-19 -7 -35 -18 -34 -24 1 -6 2 -15 3 -21 0 -5 14 -7 31
-3 l30 6 0 -117 0 -116 25 0 26 0 -3 143 c-3 159 -3 159 -78 132z"/>
<path d="M9160 696 c-22 -8 -36 -20 -38 -33 -3 -18 2 -21 30 -20 l33 2 -4
-112 -3 -113 26 0 26 0 0 145 c0 161 2 157 -70 131z"/>
<path d="M9333 695 c-13 -9 -28 -33 -34 -54 -9 -31 -8 -43 5 -69 21 -41 48
-55 100 -50 37 3 42 1 38 -15 -6 -22 -52 -47 -87 -47 -18 0 -25 -5 -25 -19 0
-28 11 -32 55 -20 153 43 164 289 13 289 -24 0 -53 -7 -65 -15z m111 -47 c20
-29 20 -47 -1 -70 -32 -36 -103 -12 -103 35 0 53 75 77 104 35z"/>
<path d="M9583 695 c-33 -23 -49 -85 -32 -121 21 -43 72 -69 109 -55 23 8 30
7 30 -3 0 -21 -35 -46 -72 -52 -30 -5 -34 -9 -30 -29 3 -20 8 -22 38 -15 72
16 118 69 130 147 12 82 -35 143 -110 143 -23 0 -51 -7 -63 -15z m105 -41 c12
-8 22 -26 22 -40 0 -29 -32 -64 -60 -64 -11 0 -29 9 -40 20 -55 55 14 129 78
84z"/>
<path d="M1224 675 c-13 -19 -15 -45 -12 -126 3 -92 5 -103 27 -120 30 -24 42
-24 75 2 25 20 26 24 26 123 0 120 -11 146 -65 146 -26 0 -39 -6 -51 -25z m66
-115 c0 -82 -3 -100 -15 -100 -12 0 -15 17 -15 93 0 52 3 97 7 100 18 19 23
-1 23 -93z"/>
<path d="M7250 624 c0 -66 2 -75 16 -70 44 17 66 17 90 1 20 -13 25 -23 22
-48 -4 -46 -42 -62 -99 -43 -33 12 -45 12 -51 3 -17 -28 61 -60 115 -47 46 10
54 16 72 49 10 21 12 37 5 61 -15 54 -37 70 -92 70 -51 0 -54 3 -38 44 9 24
15 26 65 26 42 0 55 3 55 15 0 12 -16 15 -80 15 l-80 0 0 -76z"/>
<path d="M7480 680 c0 -17 7 -20 50 -20 56 0 62 -9 25 -38 -35 -28 -32 -56 7
-67 42 -13 55 -36 40 -70 -11 -24 -17 -27 -55 -23 -23 3 -48 6 -56 9 -8 2 -17
-4 -19 -14 -6 -27 59 -51 105 -38 52 14 73 38 73 80 0 35 -31 83 -61 93 -7 2
1 17 20 35 17 17 31 41 31 52 0 20 -6 21 -80 21 -73 0 -80 -2 -80 -20z"/>
<path d="M8250 625 c0 -41 3 -75 7 -75 4 0 21 5 39 12 27 9 37 9 58 -6 34 -21
36 -68 4 -90 -28 -20 -42 -20 -85 1 -30 14 -36 14 -44 2 -11 -18 24 -46 69
-55 61 -12 119 27 128 88 5 27 1 40 -21 66 -24 28 -33 32 -77 32 -47 0 -50 1
-44 23 3 12 6 25 6 30 0 4 27 7 60 7 53 0 60 2 60 20 0 18 -7 20 -80 20 l-80
0 0 -75z"/>
<path d="M554 632 c-7 -4 -13 -16 -15 -27 -3 -11 -9 -20 -16 -20 -21 0 -28
-16 -10 -26 22 -13 22 -25 -3 -46 -24 -21 -26 -33 -5 -33 9 0 15 -9 15 -25 0
-31 17 -33 22 -2 2 14 11 23 26 25 20 3 22 0 16 -22 -4 -16 -2 -26 5 -26 6 0
13 11 17 24 3 13 15 27 27 30 21 5 21 6 3 19 -15 11 -17 17 -7 35 6 12 16 22
21 22 6 0 10 7 10 15 0 8 -4 15 -10 15 -5 0 -10 9 -10 20 0 27 -28 25 -32 -2
-5 -36 -36 -35 -40 1 -2 20 -7 28 -14 23z m44 -94 c-4 -29 -38 -38 -38 -10 0
22 8 32 27 32 9 0 13 -8 11 -22z"/>
<path d="M8644 615 c-9 -23 3 -45 26 -45 25 0 37 25 20 45 -16 19 -39 19 -46
0z"/>
<path d="M8644 453 c-3 -16 -10 -40 -14 -55 -12 -37 11 -38 39 -2 28 35 28 84
1 84 -13 0 -22 -9 -26 -27z"/>
</g>
</svg>
