<?xml version="1.0" standalone="no"?>
<!DOCTYPE svg PUBLIC "-//W3C//DTD SVG 20010904//EN"
 "http://www.w3.org/TR/2001/REC-SVG-20010904/DTD/svg10.dtd">
<svg version="1.0" xmlns="http://www.w3.org/2000/svg"
 width="1024.000000pt" height="1024.000000pt" viewBox="0 0 1024.000000 1024.000000"
 preserveAspectRatio="xMidYMid meet">

<g transform="translate(0.000000,1024.000000) scale(0.100000,-0.100000)"
fill="#000000" stroke="none">
<path d="M0 5120 l0 -5120 5120 0 5120 0 0 5120 0 5120 -5120 0 -5120 0 0
-5120z m6750 1380 c117 -25 215 -56 345 -110 55 -23 108 -44 118 -47 16 -5 17
-29 17 -311 0 -168 -4 -302 -8 -296 -4 5 -25 35 -46 67 -82 122 -230 232 -388
287 -362 126 -679 -5 -758 -314 -19 -75 -20 -110 -20 -685 0 -667 0 -663 62
-791 38 -79 124 -167 197 -204 29 -15 87 -36 129 -47 277 -70 639 71 805 314
l27 40 0 -275 0 -274 -93 -46 c-118 -58 -273 -111 -407 -139 -145 -29 -372
-29 -517 0 -295 61 -538 223 -698 466 -101 153 -140 275 -157 485 -15 201 -4
1025 16 1110 36 155 92 273 191 397 169 215 406 348 700 393 99 15 376 4 485
-20z m-2638 -150 c176 -286 474 -776 699 -1147 57 -95 107 -172 110 -173 4 0
42 56 85 125 44 69 107 169 141 223 l63 97 0 -432 0 -432 -97 -153 c-53 -84
-122 -195 -154 -246 l-58 -94 -24 39 c-40 62 -172 273 -567 903 -442 705 -413
660 -422 660 -5 0 -8 -391 -8 -868 0 -720 2 -877 14 -916 20 -64 75 -130 131
-152 25 -11 45 -22 45 -26 0 -5 -236 -8 -525 -8 -289 0 -525 3 -525 8 0 4 20
20 44 35 58 36 109 93 142 159 61 119 58 63 61 1148 3 625 0 1026 -6 1077 -17
134 -65 208 -168 256 -29 13 -50 27 -46 31 4 3 229 5 500 4 l494 -3 71 -115z"/>
</g>
</svg>
